# xmcd
#
# Track frame offsets:
#	150
#	17006
#	34969
#	54498
#	69978
#	86510
#	101207
#	125243
#	142882
#	158659
#	179510
#	195260
#	207285
#	220038
#	235950
#	246544
#	257030
# Disc length: 3602 seconds
# Revision: 3
# Processed by: cddbd v1.5.1PL0 Copyright (c) Steve Scherf et al.
#
# Submitted via: libkcddb 0.10
#
DISCID=f40e1011
DTITLE=Léo Canhoto e Robertinho - No Bang-Bang
DYEAR=1900
DGENRE=Unknown
TTITLE0=O Valentão
TTITLE1=Jack Matador
TTITLE2=Rock Bravo Chegou Para Matar
TTITLE3=Delegado Lobo Negro
TTITLE4=O Valentão da Rua Aurora
TTITLE5=O Homem Mau
TTITLE6=Buck Sarampo
TTITLE7=Amazonas Kid
TTITLE8=Kid Bocadura
TTITLE9=Delegado Jaracuçu
TTITLE10=Pedro Querosene
TTITLE11=Chumbo Quente
TTITLE12=A Polícia
TTITLE13=O Lobisomem
TTITLE14=História de Um Azarado
TTITLE15=Meu Carango
TTITLE16=Burro Tem Que Comer Capim
EXTD=
EXTT0=
EXTT1=
EXTT2=
EXTT3=
EXTT4=
EXTT5=
EXTT6=
EXTT7=
EXTT8=
EXTT9=
EXTT10=
EXTT11=
EXTT12=
EXTT13=
EXTT14=
EXTT15=
EXTT16=
PLAYORDER=
